- 
http://www.Speed.Cd 
       
http://www.Speed.Cd      fast  and The Hottest Private Tracker on the net

(((--Submit for invite!!--)))

Please Seed back to make the speed Faster!!!

------------------nfo--------------------------
-                                                                                                     
       
     
     
       
       
     
     
                                         
                                         
                EXVID                    
                                         
         
                                         
         Filled the Archives             
                                         
         
                                         
                With:                    
                                         
         
                                         
                                    
     E240                           
                                    
     SP               (C) 2009      
                                         
     
     
     
                                                                                  
                                                                                   
          The.General.1998.Theatrical.Version.DVDRip.XviD-EXViD                     
                                                                                   
                                                                                  
     
                                                                                               
EXViD aims to iNTERNAL those releases which have been lost in the archives.
EXViD aims to PRE non-internal releases which have poor sources and are likely skipped by others.
 
http://www.imdb.com/title/tt0120706/
Subtitles: English
Date: 2011.09

Directors: John Boorman

Genres: Biography | Crime | Drama | Thriller

Plot:
The real-life story of Dublin folk hero and criminal Martin Cahill, who pulled off two daring
robberies in Ireland with his team, but attracted unwanted attention from the police, the IRA,
the UVF and members of his own team.

Cast:
Brendan Gleeson 	 ... 	 Martin Cahill
Adrian Dunbar 	 ... 	 Noel Curley
Sean McGinley 	 ... 	 Gary
Maria Doyle Kennedy 	 ... 	 Frances
Angeline Ball 	 ... 	 Tina
Jon Voight 	 ... 	 Inspector Ned Kenny
Eanna MacLiam 	 ... 	 Jimmy
Tom Murphy 	 ... 	 Willie Byrne
Paul Hickey 	 ... 	 Anthony
Tommy O'Neill 	 ... 	 Paddy
John O'Toole 	 ... 	 Shea
Ciarn Fitzgerald 	 ... 	 Tommy
Ned Dennehy 	 ... 	 Gay
Vinny Murphy 	 ... 	 Harry (as Vinnie Murphy)
Roxanna Williams 	 ... 	 Orla

Stats:
Format                           : AVI
Format/Info                      : Audio Video Interleave
File size                        : 1.36 GiB
Duration                         : 1h 58mn
Overall bit rate                 : 1 640 Kbps
Writing application              : Nandub v1.0rc2
Writing library                  : Nandub build 1852/release

Video
ID                               : 0
Format                           : MPEG-4 Visual
Format profile                   : Advanced Simple@L5
Format settings, BVOP            : 1
Format settings, QPel            : No
Format settings, GMC             : No warppoints
Format settings, Matrix          : Default (H.263)
Codec ID                         : XVID
Codec ID/Hint                    : XviD
Duration                         : 1h 58mn
Bit rate                         : 1 185 Kbps
Width                            : 640 pixels
Height                           : 272 pixels
Display aspect ratio             : 2.35:1
Frame rate                       : 25.000 fps
Color space                      : YUV
Chroma subsampling               : 4:2:0
Bit depth                        : 8 bits
Scan type                        : Progressive
Compression mode                 : Lossy
Bits/(Pixel*Frame)               : 0.272
Stream size                      : 1 007 MiB (72%)
Writing library                  : XviD 64

Audio
ID                               : 1
Format                           : AC-3
Format/Info                      : Audio Coding 3
Mode extension                   : CM (complete main)
Codec ID                         : 2000
Duration                         : 1h 58mn
Bit rate mode                    : Constant
Bit rate                         : 448 Kbps
Channel(s)                       : 6 channels
Channel positions                : Front: L C R, Side: L R, LFE
Sampling rate                    : 48.0 KHz
Bit depth                        : 16 bits
Compression mode                 : Lossy
Stream size                      : 380 MiB (27%)
Alignment                        : Aligned on interleaves
Interleave, duration             : 96 ms (2.40 video frames)
Interleave, preload duration     : 96 ms




Release notes:
PosTX rip was colorized. This is the original black and white version. Sample included.

ps. PosTX rip has frameskips as you can see in the sample.

enjoy!

Looking for:
75TB+ Archives
DUTCH/FLEMiSH Archives
                                                                                                    
Greets: CRBS EPiSODE FiCO FLS iLS KLASSiGER LiPSYNC MADE NODLABS RUNNER SPRiNTER      
   

                                                                    ASCII DONE BY XX^NFO 2oo9